<svg xmlns="http://www.w3.org/2000/svg" xmlns:xlink="http://www.w3.org/1999/xlink" version="1.1" id="Object" x="0px" y="0px" viewBox="0 0 2231.23 1007.46" style="enable-background:new 0 0 2231.23 1007.46;" xml:space="preserve">
<style type="text/css">
	.st0{fill:#00b78a;}
</style>
<path class="st0" d="M1209.02,129.44c-0.57-2.37-7.51-26.95-9.07-26.95l-14.05,4.17l-33.16,9.8c10.7,16.66,17.8,33.57,22.54,49.82  c0.08,0.33,0.16,0.73,0.33,1.14c18.54,66.81-20.34,136.8-86.57,157.54c-7.19,2.21-14.62,4.08-22.13,5.55  c-43.53,8.33-92.53,3.92-145.7-13.15c-93.02-29.73-173.14-87.39-250.65-142.76c-55.7-40.35-113.93-81.75-176.49-112.87  c-64.52-31.69-126.75-48.84-184.9-50.23c-40.1-0.73-114.67,5.06-169.14,54.31c-41.65,37.65-60.68,100.46-49.66,163.75  c11.76,67.95,57.74,126.59,125.77,161.3c0.57,0.25,1.06,0.57,1.64,0.73c-4.57-0.24-9.31-0.41-13.97-0.41  c-52.84,0-94.9,13.56-126.18,40.84c-31.36,27.2-46.96,63.46-46.96,108.62c0,31.04,7.43,57.99,22.46,80.86  c14.95,22.87,36.02,40.26,63.3,52.27C90.78,683,70.93,695.42,56.8,710.94c-14.21,15.52-21.23,32.26-21.23,50.23  c0,33.16,25.56,56.35,76.77,69.42c-31.61,8.17-56.52,19.68-74.73,34.71c-18.29,14.95-27.36,31.93-27.36,51.04  c0,24.99,17.8,45.33,53.5,60.85c35.61,15.52,82.32,23.28,140.07,23.28c71.3,0,127.08-11.6,167.43-34.71  c40.26-23.19,60.44-55.7,60.44-97.6c0-37.57-17.07-67.3-51.04-89.02c-34.06-21.81-82.41-33.81-144.97-35.94l-28.59-1.63  c-20.17-0.57-37.32-1.63-51.45-3.27c-14.21-1.63-25.07-3.51-32.67-5.72c-15.27-3.84-22.87-11.19-22.87-22.05  c0-12.5,8.66-23.44,26.13-32.67c22.3,8.66,48.19,13.07,77.59,13.07c53.33,0,95.39-13.72,126.18-41.24  c30.71-27.52,46.15-63.87,46.15-109.03c0-27.77-5.88-52.19-17.56-73.1c-11.68-20.83-28.26-37.49-49.82-49.98  c16.58,1.63,33.16,1.47,49.33-0.24c20.09-2.29,39.77-7.19,58.23-14.7c5.06-2.04,10.13-4.33,15.03-6.86l-3.67-7.43  c-11.76,5.96-24.18,10.7-36.92,14.29c-45.41,12.66-96.13,10.13-143.99-7.6c-9.15-3.35-18.13-7.27-27.03-11.68  c-65.91-33.08-110.26-89.51-121.53-154.85c-10.45-60.6,7.59-120.47,47.21-156.4c52.43-47.29,124.96-53,163.59-52.19  c56.76,1.23,117.85,17.89,181.39,49.41c62.07,30.79,119.65,72.12,175.35,112.13c77.91,55.62,158.6,113.52,252.94,143.66  c54.39,17.39,104.7,21.89,149.7,13.31c4.98-0.73,9.88-2.04,14.7-3.27c26.46-7.11,51.86-19.36,72.93-37  C1204.94,257.5,1223.56,190.53,1209.02,129.44z M123.77,833.03c10.29,2.12,22.13,3.92,35.53,5.31c13.31,1.31,27.85,2.29,43.69,2.86  l28.58,1.63c41.33,0.49,72.11,5.96,92.29,16.33c19.03,10.86,28.58,25.56,28.58,44.1c0,16.82-6.45,31.85-19.19,44.92  c-12.82,13.07-29.81,23.28-51.04,30.63c-21.24,7.35-44.43,11.02-69.42,11.02c-39.2,0-69.42-8.49-90.66-25.32  c-21.23-16.91-31.85-39.53-31.85-67.79c0-15.84,2.69-29.4,8.17-40.84C103.84,844.47,112.34,836.79,123.77,833.03z M244.65,642.74  c-10.94,25.56-24.83,38.39-41.65,38.39c-16.91,0-30.22-12.58-40.02-37.57c-9.8-25.56-14.7-59.87-14.7-102.91  c0-43.04,4.9-77.1,14.7-102.09c9.8-24.5,23.36-36.75,40.84-36.75c16.82,0,30.46,12.25,40.84,36.75c9.8,24.99,14.7,59.05,14.7,102.09  C259.35,583.12,254.45,617.1,244.65,642.74z" fill="#000000"/>
<path class="st0" d="M2121.83,959.93v-3.35c8.06,0,14.6-2.4,19.63-7.22c5.04-4.8,7.55-11.35,7.55-19.63V738.44  c0-8.05-2.52-14.54-7.55-19.46c-5.03-4.92-11.58-7.38-19.63-7.38v-3.36h34.23c11.41,0,20.14-1.23,26.18-3.69  c5.59-2.46,9.51-5.48,11.75-9.06h3.36v234.24c0,8.28,2.52,14.83,7.55,19.63c5.04,4.81,11.58,7.22,19.64,7.22v3.35H2121.83z" fill="#000000"/>
<path class="st0" d="M790.12,957.93v-4.76h0.48c11.42,0,20.62-3.49,27.6-10.47c6.97-6.97,10.47-16.18,10.47-27.6V759.01  c0-12.06-2.46-21.42-7.38-28.08c-4.92-6.66-15.31-9.99-31.17-9.99v-4.76h47.12c16.81,0,29.5-1.67,38.07-5  c8.57-3.33,14.59-7.68,18.09-13.09h2.38l0.48,78.05c4.12-9.52,9.44-19.51,15.94-29.98c6.5-10.48,14.76-19.28,24.75-26.41  c9.99-7.14,21.96-10.71,35.93-10.71c4.76,0,9.83,0.48,15.23,1.43c5.39,0.95,11.1,2.7,17.13,5.23l-18.56,55.68  c-11.42-6.34-21.34-10.78-29.75-13.32c-8.41-2.54-15.78-3.81-22.13-3.81c-10.79,0-18.8,3.33-24.03,9.99  c-5.24,6.66-9.75,14.6-13.56,23.79V915.1c0,11.42,3.49,20.63,10.47,27.6c6.98,6.98,16.18,10.47,27.61,10.47h0.48v4.76H790.12z" fill="#000000"/>
<path class="st0" d="M653.07,966l-0.46-60.68c-8.16,15.99-20.54,29.02-37.16,39.05c-16.62,10.03-34.18,15.05-52.68,15.05  c-21.01,0-37.86-6.89-50.57-20.7c-12.7-13.79-19.05-31.98-19.05-54.56V756.23c0-11.92-2.35-21.16-7.05-27.75  c-4.71-6.59-15.05-9.88-31.04-9.88v-4.7h47.5c15.99,0,28.22-1.72,36.69-5.18c7.83-3.45,13.32-7.68,16.46-12.7h4.7v192.84  c0,15.69,3.14,28.22,9.41,37.63c6.27,9.4,14.42,14.11,24.46,14.11c9.71,0,19.75-4.15,30.1-12.46c10.35-8.31,19.44-19.52,27.28-33.63  V756.23c0-11.29-2.83-20.38-8.47-27.29c-5.65-6.89-15.37-10.34-29.16-10.34v-4.7h47.51c15.99,0,28.22-1.72,36.68-5.18  c8.15-3.45,13.8-7.68,16.93-12.7h4.71l-0.48,214.48c0,11.29,3.45,20.46,10.35,27.51c6.89,7.06,15.99,10.59,27.28,10.59v4.23h-46.57  c-8.16,0-15.37,0.24-21.64,0.71c-6.28,0.47-11.45,1.01-15.52,1.65c-8.47,1.88-14.43,5.48-17.87,10.82H653.07z" fill="#000000"/>
<path class="st0" d="M1235.34,966l-0.46-60.68c-8.16,15.99-20.54,29.02-37.16,39.05c-16.62,10.03-34.18,15.05-52.68,15.05  c-21.01,0-37.86-6.89-50.57-20.7c-12.7-13.79-19.05-31.98-19.05-54.56V756.23c0-11.92-2.35-21.16-7.05-27.75  c-4.71-6.59-15.05-9.88-31.04-9.88v-4.7h47.5c15.99,0,28.22-1.72,36.69-5.18c7.83-3.45,13.32-7.68,16.46-12.7h4.7v192.84  c0,15.69,3.14,28.22,9.41,37.63c6.27,9.4,14.42,14.11,24.46,14.11c9.71,0,19.75-4.15,30.1-12.46c10.35-8.31,19.44-19.52,27.28-33.63  V756.23c0-11.29-2.83-20.38-8.47-27.29c-5.65-6.89-15.37-10.34-29.16-10.34v-4.7h47.51c15.99,0,28.22-1.72,36.68-5.18  c8.15-3.45,13.8-7.68,16.93-12.7h4.71l-0.48,214.48c0,11.29,3.45,20.46,10.35,27.51c6.89,7.06,15.99,10.59,27.28,10.59v4.23h-46.57  c-8.16,0-15.37,0.24-21.64,0.71c-6.28,0.47-11.45,1.01-15.52,1.65c-8.47,1.88-14.43,5.48-17.87,10.82H1235.34z" fill="#000000"/>
<path class="st0" d="M1974.33,966l-0.46-60.68c-8.16,15.99-20.54,29.02-37.16,39.05c-16.62,10.03-34.18,15.05-52.68,15.05  c-21.01,0-37.86-6.89-50.57-20.7c-12.7-13.79-19.05-31.98-19.05-54.56V756.23c0-11.92-2.35-21.16-7.05-27.75  c-4.71-6.59-15.05-9.88-31.04-9.88v-4.7h47.5c15.99,0,28.22-1.72,36.69-5.18c7.83-3.45,13.32-7.68,16.46-12.7h4.7v192.84  c0,15.69,3.14,28.22,9.41,37.63c6.27,9.4,14.42,14.11,24.46,14.11c9.71,0,19.75-4.15,30.1-12.46c10.35-8.31,19.44-19.52,27.28-33.63  V756.23c0-11.29-2.83-20.38-8.47-27.29c-5.65-6.89-15.37-10.34-29.16-10.34v-4.7h47.51c15.99,0,28.22-1.72,36.68-5.18  c8.15-3.45,13.8-7.68,16.93-12.7h4.71l-0.48,214.48c0,11.29,3.45,20.46,10.35,27.51c6.89,7.06,15.99,10.59,27.28,10.59v4.23h-46.57  c-8.16,0-15.37,0.24-21.64,0.71c-6.28,0.47-11.45,1.01-15.52,1.65c-8.47,1.88-14.43,5.48-17.87,10.82H1974.33z" fill="#000000"/>
<path class="st0" d="M1772.38,952.7v6.44H1602.2v-6.44c10.7,0,17.8-0.84,21.28-2.58c3.87-1.29,5.8-4.06,5.8-8.38  c0-3.87-1.55-8.83-4.51-14.82c-1.74-3.42-3.8-7.41-6.12-11.93c-2.39-4.51-5.29-9.54-8.7-15.14l-73.48-117.97l-23.85,20.63v98.62  c0,15.47,4.7,27.91,14.18,37.38c9.41,9.41,21.92,14.19,37.38,14.19h0.64v6.44h-197.24v-6.44h0.64c15.47,0,27.91-4.78,37.39-14.19  c9.41-9.47,14.18-21.91,14.18-37.38V533.71c0-15.47-4.84-27.98-14.5-37.39c-9.67-9.47-22.24-14.18-37.71-14.18v-6.44h65.75  c21.92,0,38.67-2.38,50.28-7.09c10.7-4.77,18.24-10.57,22.56-17.4h6.45v339.06c27.03-22.74,54.06-45.48,81.08-68.22  c47.58-40.03,100.81-82.51,123.17-142.73c2.3-6.19,4.12-12.57,5.11-19.11c0.45-4.25,0.71-8.5,0.77-12.69c0.06-3.16,0-6.26-0.07-9.35  c-1.36-31.98-13.02-61.69-33.46-82.77c-38.86-39.97-95.72-48.15-126.14-49.5c-44.8-1.94-93.79,7.99-145.42,29.58  c-50.41,21.08-97.91,50.67-143.81,79.35c-64.2,39.51-130.78,81.29-206.59,100.17c-43.76,10.89-83.6,11.86-118.6,2.84  c-3.87-0.96-7.67-2.06-11.41-3.41c-20.62-6.77-39.57-17.98-55.56-32.81c-35.71-35.38-48.48-87.86-33.07-135.69  c2.19-7.15,5.03-14.11,8.51-20.69l10.96,3.67l25.66,9.41c-8.64,11.67-15.47,24.43-20.31,38.03l-0.33,0.96  c-17.59,52.02,9.03,108.61,60.34,128.27c5.61,2.26,11.28,4.19,17.08,5.74c33.78,8.83,72.65,7.86,115.39-2.84  c74.77-18.63,140.91-59.94,204.72-99.59c45.96-28.88,93.92-58.53,144.84-79.81c52.47-21.65,102.36-31.97,148.2-30.09  c31.65,1.48,90.05,9.86,130.4,51.44c21.92,22.58,33.93,53.92,35.1,85.17c2.46,66.15-44.87,120.44-91.88,161.15  c-11.35,9.84-22.94,19.38-34.43,29.05l128.28,197.25c8.12,10.76,15.21,18.36,21.27,22.87  C1758.39,950.44,1765.03,952.7,1772.38,952.7z" fill="#000000"/>
</svg>