<?xml version="1.0" encoding="utf-8"?>
<!-- Generator: Adobe Illustrator 26.0.1, SVG Export Plug-In . SVG Version: 6.00 Build 0)  -->
<svg version="1.1" id="Layer_1" xmlns="http://www.w3.org/2000/svg" xmlns:xlink="http://www.w3.org/1999/xlink" x="0px" y="0px"
	 viewBox="0 0 369.96 382.98" style="enable-background:new 0 0 369.96 382.98;" xml:space="preserve">
<style type="text/css">
	.st0{fill:#D4FFF4;}
	.st1{fill:#00B78A;}
	.st2{fill:#FFFFFF;}
</style>
<g id="New_Symbol">
</g>
<g>
	<g>
		<g>
			<path class="st0" d="M361.9,147.6L203.88,13.65c-10.46-8.87-25.8-8.87-36.26,0L9.59,147.6l176.15,114.99L361.9,147.6z"/>
			<path class="st1" d="M185.75,267.31c-0.9,0-1.8-0.26-2.58-0.77L7.01,151.56c-1.25-0.82-2.04-2.17-2.13-3.66
				c-0.09-1.49,0.52-2.93,1.66-3.9L164.56,10.05c12.28-10.41,30.09-10.41,42.37,0L364.95,144c1.14,0.96,1.75,2.41,1.66,3.9
				c-0.09,1.49-0.88,2.85-2.13,3.66L188.33,266.55C187.54,267.06,186.64,267.31,185.75,267.31z M17.48,147.11l168.26,109.83
				l168.26-109.83L200.82,17.26c-8.73-7.4-21.41-7.4-30.15,0L17.48,147.11z"/>
		</g>
		<g>
			<polygon class="st2" points="306.06,289.65 65.43,289.65 65.43,83.95 119.4,30.8 306.06,30.8 			"/>
			<path class="st1" d="M306.06,294.38H65.43c-2.61,0-4.73-2.12-4.73-4.73V83.95c0-1.27,0.51-2.48,1.41-3.37l53.97-53.15
				c0.88-0.87,2.08-1.36,3.32-1.36h186.66c2.61,0,4.73,2.12,4.73,4.73v258.85C310.79,292.26,308.67,294.38,306.06,294.38z
				 M70.16,284.93h231.18V35.53h-180l-51.18,50.4V284.93z"/>
		</g>
		<g>
			<rect x="89.84" y="104.25" class="st0" width="88.07" height="86.71"/>
			<rect x="193.57" y="104.25" class="st0" width="88.07" height="14.26"/>
			<rect x="193.57" y="128.51" class="st0" width="44.04" height="14.26"/>
			<rect x="193.57" y="152.77" class="st0" width="88.07" height="14.26"/>
			<rect x="193.57" y="176.7" class="st0" width="44.04" height="14.26"/>
		</g>
		<g>
			<g>
				<polygon class="st2" points="361.9,374.81 9.59,374.81 9.59,147.6 185.75,261.2 361.9,147.6 				"/>
				<path class="st1" d="M361.9,379.53H9.59c-2.61,0-4.73-2.12-4.73-4.73V147.6c0-1.73,0.95-3.32,2.46-4.15
					c1.52-0.82,3.37-0.76,4.82,0.18l173.59,111.95l173.59-111.95c1.45-0.94,3.31-1.01,4.82-0.18c1.52,0.83,2.46,2.42,2.46,4.15
					v227.2C366.62,377.42,364.51,379.53,361.9,379.53z M14.32,370.08h342.85V156.27l-168.86,108.9c-1.56,1.01-3.56,1.01-5.12,0
					L14.32,156.27V370.08z"/>
			</g>
			<g>
				<polygon class="st0" points="20.81,202.35 31.63,207.96 31.63,178.86 20.81,173.26 				"/>
				<polygon class="st0" points="20.81,241.73 31.63,247.34 31.63,218.24 20.81,212.63 				"/>
				<polygon class="st0" points="20.81,281.1 31.63,286.71 31.63,257.61 20.81,252.01 				"/>
				<polygon class="st0" points="20.81,359.85 31.63,365.46 31.63,336.36 20.81,330.76 				"/>
				<polygon class="st0" points="20.81,320.48 31.63,326.09 31.63,296.99 20.81,291.38 				"/>
			</g>
			<g>
				<polygon class="st0" points="347.88,202.35 337.06,207.96 337.06,178.86 347.88,173.26 				"/>
				<polygon class="st0" points="347.88,241.73 337.06,247.34 337.06,218.24 347.88,212.63 				"/>
				<polygon class="st0" points="347.88,281.1 337.06,286.71 337.06,257.61 347.88,252.01 				"/>
				<polygon class="st0" points="347.88,359.85 337.06,365.46 337.06,336.36 347.88,330.76 				"/>
				<polygon class="st0" points="347.88,320.48 337.06,326.09 337.06,296.99 347.88,291.38 				"/>
			</g>
			<g>
				<path class="st2" d="M361.9,374.81L203.88,240.86c-10.46-8.87-25.8-8.87-36.26,0L9.59,374.81H361.9z"/>
				<path class="st1" d="M361.9,379.53H9.59c-1.98,0-3.75-1.24-4.44-3.1c-0.68-1.86-0.13-3.95,1.38-5.23l158.02-133.95
					c12.28-10.41,30.09-10.41,42.37,0L364.95,371.2c1.51,1.28,2.06,3.37,1.38,5.23C365.65,378.3,363.88,379.53,361.9,379.53z
					 M22.48,370.08h326.54L200.82,244.46c-8.73-7.4-21.41-7.4-30.15,0L22.48,370.08z"/>
			</g>
		</g>
		<g>
			<polygon class="st0" points="119.4,30.8 66.25,83.95 119.4,83.95 			"/>
			<path class="st1" d="M119.4,88.68H66.25c-1.91,0-3.63-1.15-4.37-2.92c-0.73-1.77-0.33-3.8,1.02-5.15l53.15-53.15
				c1.35-1.35,3.38-1.76,5.15-1.02c1.77,0.73,2.92,2.45,2.92,4.37v53.15C124.12,86.56,122.01,88.68,119.4,88.68z M77.66,79.23h37.01
				V42.21L77.66,79.23z"/>
		</g>
	</g>
</g>
</svg>
